<svg xmlns="http://www.w3.org/2000/svg" xmlns:xlink="http://www.w3.org/1999/xlink" width="3000" zoomAndPan="magnify" viewBox="0 0 2250 1124.99995" height="1500" preserveAspectRatio="xMidYMid meet" version="1.0"><defs><g/><clipPath id="bd4bb2de06"><path d="M 1036 384 L 1216 384 L 1216 625.96875 L 1036 625.96875 Z M 1036 384 " clip-rule="nonzero"/></clipPath><clipPath id="8763ab1b30"><path d="M 1036 143.085938 L 1216 143.085938 L 1216 385 L 1036 385 Z M 1036 143.085938 " clip-rule="nonzero"/></clipPath><clipPath id="7c920aee62"><path d="M 884.386719 294 L 1126 294 L 1126 475 L 884.386719 475 Z M 884.386719 294 " clip-rule="nonzero"/></clipPath><clipPath id="75d70838ab"><path d="M 1125 294 L 1367.273438 294 L 1367.273438 475 L 1125 475 Z M 1125 294 " clip-rule="nonzero"/></clipPath></defs><g clip-path="url(#bd4bb2de06)"><path fill="#a6a6a6" d="M 1178.429688 625.722656 L 1073.105469 625.722656 C 1052.78125 625.722656 1036.152344 609.09375 1036.152344 588.765625 L 1036.152344 537.644531 L 1060.789062 537.644531 L 1060.789062 588.765625 C 1060.789062 595.542969 1066.332031 601.085938 1073.105469 601.085938 L 1178.429688 601.085938 C 1185.203125 601.085938 1190.746094 595.542969 1190.746094 588.765625 L 1190.746094 384.527344 L 1215.386719 384.527344 L 1215.386719 588.765625 C 1215.386719 609.09375 1198.878906 625.722656 1178.429688 625.722656 Z M 1178.429688 625.722656 " fill-opacity="1" fill-rule="nonzero"/></g><g clip-path="url(#8763ab1b30)"><path fill="#0071e3" d="M 1060.789062 384.527344 L 1036.152344 384.527344 L 1036.152344 180.285156 C 1036.152344 159.960938 1052.78125 143.332031 1073.105469 143.332031 L 1178.429688 143.332031 C 1198.753906 143.332031 1215.386719 159.960938 1215.386719 180.285156 L 1215.386719 231.410156 L 1190.746094 231.410156 L 1190.746094 180.285156 C 1190.746094 173.511719 1185.203125 167.96875 1178.429688 167.96875 L 1073.105469 167.96875 C 1066.332031 167.96875 1060.789062 173.511719 1060.789062 180.285156 Z M 1060.789062 384.527344 " fill-opacity="1" fill-rule="nonzero"/></g><g clip-path="url(#7c920aee62)"><path fill="#0071e3" d="M 1125.828125 474.207031 L 921.589844 474.207031 C 901.265625 474.207031 884.632812 457.574219 884.632812 437.25 L 884.632812 331.925781 C 884.632812 311.601562 901.265625 294.972656 921.589844 294.972656 L 972.710938 294.972656 L 972.710938 319.609375 L 921.589844 319.609375 C 914.8125 319.609375 909.269531 325.152344 909.269531 331.925781 L 909.269531 437.25 C 909.269531 444.023438 914.8125 449.566406 921.589844 449.566406 L 1125.828125 449.566406 Z M 1125.828125 474.207031 " fill-opacity="1" fill-rule="nonzero"/></g><g clip-path="url(#75d70838ab)"><path fill="#a6a6a6" d="M 1330.070312 474.207031 L 1278.949219 474.207031 L 1278.949219 449.566406 L 1330.070312 449.566406 C 1336.84375 449.566406 1342.386719 444.023438 1342.386719 437.25 L 1342.386719 331.925781 C 1342.386719 325.152344 1336.84375 319.609375 1330.070312 319.609375 L 1125.828125 319.609375 L 1125.828125 294.972656 L 1330.070312 294.972656 C 1350.394531 294.972656 1367.023438 311.601562 1367.023438 331.925781 L 1367.023438 437.25 C 1367.023438 457.574219 1350.394531 474.207031 1330.070312 474.207031 Z M 1330.070312 474.207031 " fill-opacity="1" fill-rule="nonzero"/></g><g fill="#0071e3" fill-opacity="1"><g transform="translate(286.174125, 835.720972)"><g><path d="M 17.265625 -131.375 L 69.625 -131.375 C 86.144531 -131.375 98.9375 -127.460938 108 -119.640625 C 117.070312 -111.816406 121.609375 -100.773438 121.609375 -86.515625 C 121.609375 -71.628906 117.070312 -60.085938 108 -51.890625 C 98.9375 -43.691406 86.144531 -39.59375 69.625 -39.59375 L 39.40625 -39.59375 L 39.40625 0 L 17.265625 0 Z M 39.40625 -111.484375 L 39.40625 -59.484375 L 68.6875 -59.484375 C 89.832031 -59.484375 100.40625 -68.304688 100.40625 -85.953125 C 100.40625 -102.972656 89.832031 -111.484375 68.6875 -111.484375 Z M 39.40625 -111.484375 "/></g></g></g><g fill="#0071e3" fill-opacity="1"><g transform="translate(440.593018, 835.720972)"><g><path d="M 131.1875 0 L 109.03125 0 L 109.03125 -54.421875 L 39.40625 -54.421875 L 39.40625 0 L 17.265625 0 L 17.265625 -131.375 L 39.40625 -131.375 L 39.40625 -74.3125 L 109.03125 -74.3125 L 109.03125 -131.375 L 131.1875 -131.375 Z M 131.1875 0 "/></g></g></g><g fill="#0071e3" fill-opacity="1"><g transform="translate(617.150518, 835.720972)"><g><path d="M 17.265625 -131.375 L 71.125 -131.375 C 90.769531 -131.375 107.003906 -125.179688 119.828125 -112.796875 C 132.648438 -100.410156 139.0625 -84.707031 139.0625 -65.6875 C 139.0625 -46.664062 132.617188 -30.960938 119.734375 -18.578125 C 106.847656 -6.191406 90.457031 0 70.5625 0 L 17.265625 0 Z M 39.40625 -111.484375 L 39.40625 -19.890625 L 71.6875 -19.890625 C 84.570312 -19.890625 95.300781 -24.175781 103.875 -32.75 C 112.445312 -41.320312 116.734375 -52.238281 116.734375 -65.5 C 116.734375 -78.757812 112.320312 -89.738281 103.5 -98.4375 C 94.675781 -107.132812 83.757812 -111.484375 70.75 -111.484375 Z M 39.40625 -111.484375 "/></g></g></g><g fill="#0071e3" fill-opacity="1"><g transform="translate(790.706188, 835.720972)"><g/></g></g><g fill="#0071e3" fill-opacity="1"><g transform="translate(867.264701, 835.720972)"><g><path d="M 39.40625 0 L 17.265625 0 L 17.265625 -131.375 L 39.40625 -131.375 Z M 39.40625 0 "/></g></g></g><g fill="#0071e3" fill-opacity="1"><g transform="translate(952.078319, 835.720972)"><g><path d="M 131.1875 0 L 109.40625 0 L 39.40625 -94.21875 L 39.40625 0 L 17.265625 0 L 17.265625 -131.375 L 39.03125 -131.375 L 109.40625 -36.96875 L 109.40625 -131.375 L 131.1875 -131.375 Z M 131.1875 0 "/></g></g></g><g fill="#0071e3" fill-opacity="1"><g transform="translate(1128.823481, 835.720972)"><g><path d="M 60.4375 -132.3125 C 77.445312 -132.3125 92.769531 -127.804688 106.40625 -118.796875 L 97.21875 -99.28125 C 83.832031 -107.414062 71.003906 -111.484375 58.734375 -111.484375 C 52.109375 -111.484375 46.882812 -110.289062 43.0625 -107.90625 C 39.25 -105.53125 37.34375 -102.148438 37.34375 -97.765625 C 37.34375 -93.390625 39.09375 -89.671875 42.59375 -86.609375 C 46.101562 -83.546875 50.484375 -81.296875 55.734375 -79.859375 C 60.992188 -78.421875 66.6875 -76.601562 72.8125 -74.40625 C 78.945312 -72.21875 84.640625 -69.90625 89.890625 -67.46875 C 95.148438 -65.03125 99.5 -61.210938 102.9375 -56.015625 C 106.375 -50.828125 108.09375 -44.539062 108.09375 -37.15625 C 108.09375 -25.644531 103.492188 -16.445312 94.296875 -9.5625 C 85.109375 -2.6875 73.191406 0.75 58.546875 0.75 C 48.546875 0.75 38.851562 -1.125 29.46875 -4.875 C 20.082031 -8.632812 11.882812 -13.703125 4.875 -20.078125 L 14.453125 -39.21875 C 21.078125 -33.09375 28.363281 -28.367188 36.3125 -25.046875 C 44.257812 -21.734375 51.796875 -20.078125 58.921875 -20.078125 C 66.679688 -20.078125 72.71875 -21.484375 77.03125 -24.296875 C 81.351562 -27.117188 83.515625 -31.03125 83.515625 -36.03125 C 83.515625 -40.539062 81.757812 -44.328125 78.25 -47.390625 C 74.75 -50.453125 70.367188 -52.703125 65.109375 -54.140625 C 59.859375 -55.578125 54.164062 -57.328125 48.03125 -59.390625 C 41.90625 -61.460938 36.210938 -63.65625 30.953125 -65.96875 C 25.703125 -68.28125 21.328125 -72 17.828125 -77.125 C 14.328125 -82.257812 12.578125 -88.457031 12.578125 -95.71875 C 12.578125 -106.851562 16.953125 -115.734375 25.703125 -122.359375 C 34.460938 -128.992188 46.039062 -132.3125 60.4375 -132.3125 Z M 60.4375 -132.3125 "/></g></g></g><g fill="#0071e3" fill-opacity="1"><g transform="translate(1273.674044, 835.720972)"><g><path d="M 39.40625 0 L 17.265625 0 L 17.265625 -131.375 L 39.40625 -131.375 Z M 39.40625 0 "/></g></g></g><g fill="#0071e3" fill-opacity="1"><g transform="translate(1358.487662, 835.720972)"><g><path d="M 17.265625 -131.375 L 71.125 -131.375 C 90.769531 -131.375 107.003906 -125.179688 119.828125 -112.796875 C 132.648438 -100.410156 139.0625 -84.707031 139.0625 -65.6875 C 139.0625 -46.664062 132.617188 -30.960938 119.734375 -18.578125 C 106.847656 -6.191406 90.457031 0 70.5625 0 L 17.265625 0 Z M 39.40625 -111.484375 L 39.40625 -19.890625 L 71.6875 -19.890625 C 84.570312 -19.890625 95.300781 -24.175781 103.875 -32.75 C 112.445312 -41.320312 116.734375 -52.238281 116.734375 -65.5 C 116.734375 -78.757812 112.320312 -89.738281 103.5 -98.4375 C 94.675781 -107.132812 83.757812 -111.484375 70.75 -111.484375 Z M 39.40625 -111.484375 "/></g></g></g><g fill="#0071e3" fill-opacity="1"><g transform="translate(1532.043372, 835.720972)"><g><path d="M 111.109375 -111.484375 L 39.40625 -111.484375 L 39.40625 -76 L 103.59375 -76 L 103.59375 -56.109375 L 39.40625 -56.109375 L 39.40625 -19.890625 L 113.359375 -19.890625 L 113.359375 0 L 17.265625 0 L 17.265625 -131.375 L 111.109375 -131.375 Z M 111.109375 -111.484375 "/></g></g></g><g fill="#0071e3" fill-opacity="1"><g transform="translate(1683.272839, 835.720972)"><g><path d="M 100.59375 0 L 76.5625 -39.78125 C 75.3125 -39.65625 73.3125 -39.59375 70.5625 -39.59375 L 39.40625 -39.59375 L 39.40625 0 L 17.265625 0 L 17.265625 -131.375 L 70.5625 -131.375 C 87.332031 -131.375 100.34375 -127.460938 109.59375 -119.640625 C 118.851562 -111.816406 123.484375 -100.773438 123.484375 -86.515625 C 123.484375 -76.003906 121.132812 -67.117188 116.4375 -59.859375 C 111.75 -52.609375 105.03125 -47.296875 96.28125 -43.921875 L 125.734375 0 Z M 39.40625 -59.484375 L 70.5625 -59.484375 C 91.832031 -59.484375 102.46875 -68.304688 102.46875 -85.953125 C 102.46875 -102.972656 91.832031 -111.484375 70.5625 -111.484375 L 39.40625 -111.484375 Z M 39.40625 -59.484375 "/></g></g></g><g fill="#0071e3" fill-opacity="1"><g transform="translate(1847.072491, 835.720972)"><g><path d="M 60.4375 -132.3125 C 77.445312 -132.3125 92.769531 -127.804688 106.40625 -118.796875 L 97.21875 -99.28125 C 83.832031 -107.414062 71.003906 -111.484375 58.734375 -111.484375 C 52.109375 -111.484375 46.882812 -110.289062 43.0625 -107.90625 C 39.25 -105.53125 37.34375 -102.148438 37.34375 -97.765625 C 37.34375 -93.390625 39.09375 -89.671875 42.59375 -86.609375 C 46.101562 -83.546875 50.484375 -81.296875 55.734375 -79.859375 C 60.992188 -78.421875 66.6875 -76.601562 72.8125 -74.40625 C 78.945312 -72.21875 84.640625 -69.90625 89.890625 -67.46875 C 95.148438 -65.03125 99.5 -61.210938 102.9375 -56.015625 C 106.375 -50.828125 108.09375 -44.539062 108.09375 -37.15625 C 108.09375 -25.644531 103.492188 -16.445312 94.296875 -9.5625 C 85.109375 -2.6875 73.191406 0.75 58.546875 0.75 C 48.546875 0.75 38.851562 -1.125 29.46875 -4.875 C 20.082031 -8.632812 11.882812 -13.703125 4.875 -20.078125 L 14.453125 -39.21875 C 21.078125 -33.09375 28.363281 -28.367188 36.3125 -25.046875 C 44.257812 -21.734375 51.796875 -20.078125 58.921875 -20.078125 C 66.679688 -20.078125 72.71875 -21.484375 77.03125 -24.296875 C 81.351562 -27.117188 83.515625 -31.03125 83.515625 -36.03125 C 83.515625 -40.539062 81.757812 -44.328125 78.25 -47.390625 C 74.75 -50.453125 70.367188 -52.703125 65.109375 -54.140625 C 59.859375 -55.578125 54.164062 -57.328125 48.03125 -59.390625 C 41.90625 -61.460938 36.210938 -63.65625 30.953125 -65.96875 C 25.703125 -68.28125 21.328125 -72 17.828125 -77.125 C 14.328125 -82.257812 12.578125 -88.457031 12.578125 -95.71875 C 12.578125 -106.851562 16.953125 -115.734375 25.703125 -122.359375 C 34.460938 -128.992188 46.039062 -132.3125 60.4375 -132.3125 Z M 60.4375 -132.3125 "/></g></g></g><g fill="#a6a6a6" fill-opacity="1"><g transform="translate(629.659326, 968.639781)"><g><path d="M 35.5625 0 L 27.078125 -14.0625 C 26.628906 -14.019531 25.921875 -14 24.953125 -14 L 13.9375 -14 L 13.9375 0 L 6.109375 0 L 6.109375 -46.453125 L 24.953125 -46.453125 C 30.878906 -46.453125 35.476562 -45.066406 38.75 -42.296875 C 42.03125 -39.535156 43.671875 -35.632812 43.671875 -30.59375 C 43.671875 -26.875 42.835938 -23.726562 41.171875 -21.15625 C 39.515625 -18.59375 37.140625 -16.71875 34.046875 -15.53125 L 44.453125 0 Z M 13.9375 -21.03125 L 24.953125 -21.03125 C 32.472656 -21.03125 36.234375 -24.148438 36.234375 -30.390625 C 36.234375 -36.410156 32.472656 -39.421875 24.953125 -39.421875 L 13.9375 -39.421875 Z M 13.9375 -21.03125 "/></g></g></g><g fill="#a6a6a6" fill-opacity="1"><g transform="translate(694.223989, 968.639781)"><g><path d="M 39.28125 -39.421875 L 13.9375 -39.421875 L 13.9375 -26.875 L 36.625 -26.875 L 36.625 -19.84375 L 13.9375 -19.84375 L 13.9375 -7.03125 L 40.078125 -7.03125 L 40.078125 0 L 6.109375 0 L 6.109375 -46.453125 L 39.28125 -46.453125 Z M 39.28125 -39.421875 "/></g></g></g><g fill="#a6a6a6" fill-opacity="1"><g transform="translate(754.34326, 968.639781)"><g><path d="M 21.375 -46.78125 C 27.382812 -46.78125 32.800781 -45.1875 37.625 -42 L 34.375 -35.109375 C 29.644531 -37.984375 25.109375 -39.421875 20.765625 -39.421875 C 18.421875 -39.421875 16.570312 -39 15.21875 -38.15625 C 13.875 -37.3125 13.203125 -36.113281 13.203125 -34.5625 C 13.203125 -33.019531 13.820312 -31.707031 15.0625 -30.625 C 16.300781 -29.539062 17.847656 -28.742188 19.703125 -28.234375 C 21.566406 -27.722656 23.582031 -27.082031 25.75 -26.3125 C 27.914062 -25.539062 29.925781 -24.722656 31.78125 -23.859375 C 33.644531 -22.992188 35.179688 -21.640625 36.390625 -19.796875 C 37.609375 -17.960938 38.21875 -15.742188 38.21875 -13.140625 C 38.21875 -9.066406 36.59375 -5.8125 33.34375 -3.375 C 30.09375 -0.945312 25.878906 0.265625 20.703125 0.265625 C 17.160156 0.265625 13.726562 -0.394531 10.40625 -1.71875 C 7.09375 -3.050781 4.195312 -4.84375 1.71875 -7.09375 L 5.109375 -13.875 C 7.453125 -11.707031 10.023438 -10.035156 12.828125 -8.859375 C 15.640625 -7.679688 18.3125 -7.09375 20.84375 -7.09375 C 23.582031 -7.09375 25.710938 -7.59375 27.234375 -8.59375 C 28.765625 -9.59375 29.53125 -10.972656 29.53125 -12.734375 C 29.53125 -14.328125 28.910156 -15.664062 27.671875 -16.75 C 26.429688 -17.832031 24.878906 -18.628906 23.015625 -19.140625 C 21.160156 -19.648438 19.148438 -20.269531 16.984375 -21 C 14.816406 -21.726562 12.800781 -22.5 10.9375 -23.3125 C 9.082031 -24.132812 7.535156 -25.453125 6.296875 -27.265625 C 5.066406 -29.085938 4.453125 -31.28125 4.453125 -33.84375 C 4.453125 -37.78125 6 -40.921875 9.09375 -43.265625 C 12.1875 -45.609375 16.28125 -46.78125 21.375 -46.78125 Z M 21.375 -46.78125 "/></g></g></g><g fill="#a6a6a6" fill-opacity="1"><g transform="translate(812.20664, 968.639781)"><g><path d="M 39.28125 -39.421875 L 13.9375 -39.421875 L 13.9375 -26.875 L 36.625 -26.875 L 36.625 -19.84375 L 13.9375 -19.84375 L 13.9375 -7.03125 L 40.078125 -7.03125 L 40.078125 0 L 6.109375 0 L 6.109375 -46.453125 L 39.28125 -46.453125 Z M 39.28125 -39.421875 "/></g></g></g><g fill="#a6a6a6" fill-opacity="1"><g transform="translate(872.32591, 968.639781)"><g><path d="M 36.09375 -10.484375 L 12.671875 -10.484375 L 8.234375 0 L 0.0625 0 L 20.578125 -46.453125 L 28.59375 -46.453125 L 48.90625 0 L 40.546875 0 Z M 33.109375 -17.453125 L 24.359375 -38.09375 L 15.59375 -17.453125 Z M 33.109375 -17.453125 "/></g></g></g><g fill="#a6a6a6" fill-opacity="1"><g transform="translate(937.885815, 968.639781)"><g><path d="M 35.5625 0 L 27.078125 -14.0625 C 26.628906 -14.019531 25.921875 -14 24.953125 -14 L 13.9375 -14 L 13.9375 0 L 6.109375 0 L 6.109375 -46.453125 L 24.953125 -46.453125 C 30.878906 -46.453125 35.476562 -45.066406 38.75 -42.296875 C 42.03125 -39.535156 43.671875 -35.632812 43.671875 -30.59375 C 43.671875 -26.875 42.835938 -23.726562 41.171875 -21.15625 C 39.515625 -18.59375 37.140625 -16.71875 34.046875 -15.53125 L 44.453125 0 Z M 13.9375 -21.03125 L 24.953125 -21.03125 C 32.472656 -21.03125 36.234375 -24.148438 36.234375 -30.390625 C 36.234375 -36.410156 32.472656 -39.421875 24.953125 -39.421875 L 13.9375 -39.421875 Z M 13.9375 -21.03125 "/></g></g></g><g fill="#a6a6a6" fill-opacity="1"><g transform="translate(1002.450478, 968.639781)"><g><path d="M 26.671875 -46.65625 C 29.953125 -46.65625 33.148438 -46.023438 36.265625 -44.765625 C 39.378906 -43.503906 42.066406 -41.742188 44.328125 -39.484375 L 39.75 -33.78125 C 38.070312 -35.59375 36.082031 -37.03125 33.78125 -38.09375 C 31.476562 -39.15625 29.15625 -39.6875 26.8125 -39.6875 C 22.164062 -39.6875 18.238281 -38.101562 15.03125 -34.9375 C 11.820312 -31.769531 10.21875 -27.910156 10.21875 -23.359375 C 10.21875 -18.753906 11.820312 -14.867188 15.03125 -11.703125 C 18.238281 -8.546875 22.164062 -6.96875 26.8125 -6.96875 C 31.632812 -6.96875 35.945312 -8.800781 39.75 -12.46875 L 44.390625 -7.296875 C 42.003906 -4.953125 39.21875 -3.09375 36.03125 -1.71875 C 32.84375 -0.351562 29.632812 0.328125 26.40625 0.328125 C 19.59375 0.328125 13.863281 -1.9375 9.21875 -6.46875 C 4.570312 -11 2.25 -16.609375 2.25 -23.296875 C 2.25 -29.878906 4.601562 -35.414062 9.3125 -39.90625 C 14.03125 -44.40625 19.816406 -46.65625 26.671875 -46.65625 Z M 26.671875 -46.65625 "/></g></g></g><g fill="#a6a6a6" fill-opacity="1"><g transform="translate(1065.290046, 968.639781)"><g><path d="M 46.390625 0 L 38.5625 0 L 38.5625 -19.25 L 13.9375 -19.25 L 13.9375 0 L 6.109375 0 L 6.109375 -46.453125 L 13.9375 -46.453125 L 13.9375 -26.28125 L 38.5625 -26.28125 L 38.5625 -46.453125 L 46.390625 -46.453125 Z M 46.390625 0 "/></g></g></g><g fill="#a6a6a6" fill-opacity="1"><g transform="translate(1134.36651, 968.639781)"><g/></g></g><g fill="#a6a6a6" fill-opacity="1"><g transform="translate(1168.078628, 968.639781)"><g><path d="M 46.390625 0 L 38.6875 0 L 13.9375 -33.3125 L 13.9375 0 L 6.109375 0 L 6.109375 -46.453125 L 13.796875 -46.453125 L 38.6875 -13.078125 L 38.6875 -46.453125 L 46.390625 -46.453125 Z M 46.390625 0 "/></g></g></g><g fill="#a6a6a6" fill-opacity="1"><g transform="translate(1237.221406, 968.639781)"><g><path d="M 39.28125 -39.421875 L 13.9375 -39.421875 L 13.9375 -26.875 L 36.625 -26.875 L 36.625 -19.84375 L 13.9375 -19.84375 L 13.9375 -7.03125 L 40.078125 -7.03125 L 40.078125 0 L 6.109375 0 L 6.109375 -46.453125 L 39.28125 -46.453125 Z M 39.28125 -39.421875 "/></g></g></g><g fill="#a6a6a6" fill-opacity="1"><g transform="translate(1297.340695, 968.639781)"><g><path d="M 37.828125 -39.421875 L 23.09375 -39.421875 L 23.09375 0 L 15.265625 0 L 15.265625 -39.421875 L 0.59375 -39.421875 L 0.59375 -46.453125 L 37.828125 -46.453125 Z M 37.828125 -39.421875 "/></g></g></g><g fill="#a6a6a6" fill-opacity="1"><g transform="translate(1352.350997, 968.639781)"><g><path d="M 53.890625 0 L 45.859375 0 L 34.84375 -36.234375 L 23.6875 0 L 15.59375 0 L 0.203125 -46.453125 L 8.625 -46.453125 L 19.90625 -8.6875 L 31.125 -46.390625 L 38.8125 -46.453125 L 50.09375 -8.6875 L 61.3125 -46.453125 L 69.40625 -46.453125 Z M 53.890625 0 "/></g></g></g><g fill="#a6a6a6" fill-opacity="1"><g transform="translate(1437.683124, 968.639781)"><g><path d="M 9.34375 -39.90625 C 14.082031 -44.40625 19.925781 -46.65625 26.875 -46.65625 C 33.820312 -46.65625 39.660156 -44.40625 44.390625 -39.90625 C 49.128906 -35.414062 51.5 -29.851562 51.5 -23.21875 C 51.5 -16.582031 49.128906 -11 44.390625 -6.46875 C 39.660156 -1.9375 33.820312 0.328125 26.875 0.328125 C 19.925781 0.328125 14.082031 -1.9375 9.34375 -6.46875 C 4.613281 -11 2.25 -16.582031 2.25 -23.21875 C 2.25 -29.851562 4.613281 -35.414062 9.34375 -39.90625 Z M 26.9375 -39.609375 C 22.34375 -39.609375 18.40625 -38.023438 15.125 -34.859375 C 11.851562 -31.703125 10.21875 -27.820312 10.21875 -23.21875 C 10.21875 -18.625 11.863281 -14.722656 15.15625 -11.515625 C 18.457031 -8.304688 22.382812 -6.703125 26.9375 -6.703125 C 31.5 -6.703125 35.394531 -8.304688 38.625 -11.515625 C 41.851562 -14.722656 43.46875 -18.625 43.46875 -23.21875 C 43.46875 -27.820312 41.851562 -31.703125 38.625 -34.859375 C 35.394531 -38.023438 31.5 -39.609375 26.9375 -39.609375 Z M 26.9375 -39.609375 "/></g></g></g><g fill="#a6a6a6" fill-opacity="1"><g transform="translate(1508.020237, 968.639781)"><g><path d="M 35.5625 0 L 27.078125 -14.0625 C 26.628906 -14.019531 25.921875 -14 24.953125 -14 L 13.9375 -14 L 13.9375 0 L 6.109375 0 L 6.109375 -46.453125 L 24.953125 -46.453125 C 30.878906 -46.453125 35.476562 -45.066406 38.75 -42.296875 C 42.03125 -39.535156 43.671875 -35.632812 43.671875 -30.59375 C 43.671875 -26.875 42.835938 -23.726562 41.171875 -21.15625 C 39.515625 -18.59375 37.140625 -16.71875 34.046875 -15.53125 L 44.453125 0 Z M 13.9375 -21.03125 L 24.953125 -21.03125 C 32.472656 -21.03125 36.234375 -24.148438 36.234375 -30.390625 C 36.234375 -36.410156 32.472656 -39.421875 24.953125 -39.421875 L 13.9375 -39.421875 Z M 13.9375 -21.03125 "/></g></g></g><g fill="#a6a6a6" fill-opacity="1"><g transform="translate(1572.584919, 968.639781)"><g><path d="M 37.09375 0 L 21.828125 -20.5 L 13.9375 -11.8125 L 13.9375 0 L 6.109375 0 L 6.109375 -46.453125 L 13.9375 -46.453125 L 13.9375 -22.421875 L 36.09375 -46.453125 L 45.328125 -46.453125 L 27.34375 -26.609375 L 46.515625 0 Z M 37.09375 0 "/></g></g></g></svg>